# xmcd
#
# Track frame offsets: 
#        182
#        6735
#        22542
#        39755
#        55065
#        71962
#        90725
#        111572
#        131142
#        149585
#        167765
#        187647
#        202630
#
# Disc length: 2955 seconds
#
# Revision: 4
# Processed by: cddbd v1.5.2PL0 Copyright (c) Steve Scherf et al.
# Submitted via: ExactAudioCopyFreeDBPlugin 1.0
#
DISCID=ad0b890d
DTITLE=Queen Pen - My Melody
DYEAR=1997
DGENRE=R&B
TTITLE0=Intro
TTITLE1=Queen Of The Click
TTITLE2=Man Behind The Music
TTITLE3=All My Love
TTITLE4=My Melody
TTITLE5=Party Ain't A Party
TTITLE6=It's True
TTITLE7=The Set Up
TTITLE8=Get Away
TTITLE9=I'm Gon Blow Up
TTITLE10=Girlfriend
TTITLE11=No Hooks
TTITLE12=So Many Ways
EXTD=
EXTT0=
EXTT1=
EXTT2=
EXTT3=
EXTT4=
EXTT5=
EXTT6=
EXTT7=
EXTT8=
EXTT9=
EXTT10=
EXTT11=
EXTT12=
PLAYORDER=
